<?xml version="1.0" encoding="UTF-8"?>
<svg width="483px" height="483px" viewBox="0 0 483 483" version="1.1" xmlns="http://www.w3.org/2000/svg" xmlns:xlink="http://www.w3.org/1999/xlink">
    <!-- Generator: Sketch 53.2 (72643) - https://sketchapp.com -->
    <title>MockSwiftLogoV1A</title>
    <desc>Created with Sketch.</desc>
    <defs>
        <linearGradient x1="100%" y1="100%" x2="0%" y2="0%" id="linearGradient-1">
            <stop stop-color="#F98969" offset="0%"></stop>
            <stop stop-color="#F05138" offset="100%"></stop>
        </linearGradient>
        <circle id="path-2" cx="211.300323" cy="309.391166" r="45.8660934"></circle>
        <filter x="-5.5%" y="-5.5%" width="115.3%" height="115.3%" filterUnits="objectBoundingBox" id="filter-3">
            <feOffset dx="2" dy="2" in="SourceAlpha" result="shadowOffsetOuter1"></feOffset>
            <feGaussianBlur stdDeviation="2" in="shadowOffsetOuter1" result="shadowBlurOuter1"></feGaussianBlur>
            <feColorMatrix values="0 0 0 0 0   0 0 0 0 0   0 0 0 0 0  0 0 0 0.32 0" type="matrix" in="shadowBlurOuter1"></feColorMatrix>
        </filter>
    </defs>
    <g id="Page-2" stroke="none" stroke-width="1" fill="none" fill-rule="evenodd">
        <g id="MockSwiftLogoV1A" transform="translate(240.892965, 241.892965) rotate(45.000000) translate(-240.892965, -241.892965) translate(44.392965, 45.392965)">
            <path d="M392.979064,108.600946 C392.979064,104.524974 392.979064,100.819544 392.979064,96.7435725 C392.608871,88.2210856 392.238678,79.3280557 390.757906,70.8055688 C389.277134,62.2830819 386.685783,54.1311379 382.61366,46.3497368 C378.541537,38.5683357 373.729027,31.5280204 367.435746,25.5993339 C361.142465,19.3001044 354.108798,14.4830466 346.704938,10.4070746 C338.930884,6.33110262 330.786638,3.73730225 322.272199,2.25513061 C313.75776,0.772958977 305.243321,0.0318731584 296.358688,0.0318731584 C292.286565,0.0318731584 288.584635,0.0318731584 284.512512,0.0318731584 C279.700003,0.0318731584 275.257687,0.0318731584 270.445178,0.0318731584 L166.420942,0.0318731584 L123.478552,0.0318731584 C118.666043,0.0318731584 114.223727,0.0318731584 109.411218,0.0318731584 C105.339095,0.0318731584 101.637165,0.0318731584 97.5650417,0.0318731584 C95.3438836,0.0318731584 93.1227255,0.0318731584 91.2717605,0.402416068 C84.9784793,0.772958977 78.3150051,1.14350189 72.0217239,2.25513061 C65.7284428,3.36675934 59.4351616,5.21947389 53.5120734,7.44273134 C51.6611084,8.18381716 49.4399503,9.29544589 47.5889853,10.0365317 C41.6658971,13.000875 36.4831949,16.7063041 31.3004928,20.7822761 C29.8197208,22.2644477 27.9687557,23.7466194 26.4879837,25.228791 C20.1947025,31.5280204 15.3821934,38.5683357 11.3100702,45.9791939 C7.23794712,53.760595 4.64659605,61.912539 3.16582401,70.4350259 C1.68505197,78.9575128 1.31485896,87.4799998 0.944665946,96.3730296 C0.944665946,100.449002 0.944665946,104.154431 0.944665946,108.230403 C0.944665946,113.04746 0.944665946,117.493975 0.944665946,122.311033 L0.944665946,186.414957 L0.944665946,269.416568 C0.944665946,274.233626 0.944665946,278.680141 0.944665946,283.497199 C0.944665946,287.573171 0.944665946,291.2786 0.944665946,295.354572 C1.31485896,303.877059 1.68505197,312.770089 3.16582401,321.292576 C4.64659605,329.815062 7.23794712,337.967006 11.3100702,345.748408 C15.3821934,353.529809 20.1947025,360.570124 26.4879837,366.49881 C32.7812648,372.79804 39.814932,377.615098 47.2187922,381.69107 C54.9928455,385.767042 63.1370917,388.360842 71.6515309,389.843014 C80.1659702,391.325185 88.6804094,392.066271 97.5650417,392.066271 C101.637165,392.066271 105.339095,392.066271 109.411218,392.066271 C114.223727,392.066271 118.666043,392.066271 123.478552,392.066271 L270.445178,392.066271 C275.257687,392.066271 279.700003,392.066271 284.512512,392.066271 C288.584635,392.066271 292.286565,392.066271 296.358688,392.066271 C304.873128,391.695728 313.75776,391.325185 322.272199,389.843014 C330.786638,388.360842 338.930884,385.767042 346.704938,381.69107 C354.478991,377.615098 361.512658,372.79804 367.435746,366.49881 C373.729027,360.199581 378.541537,353.159266 382.61366,345.748408 C386.685783,337.967006 389.277134,329.815062 390.757906,321.292576 C392.238678,312.770089 392.979064,304.247602 392.979064,295.354572 C392.979064,291.2786 392.979064,287.573171 392.979064,283.497199 C392.979064,278.680141 392.979064,274.233626 392.979064,269.416568 L392.979064,122.311033 C392.979064,117.864518 392.979064,113.418003 392.979064,108.600946 Z" id="Path" fill="url(#linearGradient-1)" fill-rule="nonzero"></path>
            <path d="M260.608967,260.197633 L260.608967,112.746204 C260.608967,85.7228063 282.51576,63.8160138 309.539158,63.8160138 C336.562556,63.8160138 358.469348,85.7228063 358.469348,112.746204 L358.469348,309.266764 C358.469348,331.281623 343.930477,349.900747 323.930591,356.046277 C319.254424,357.526286 314.275153,358.324613 309.109422,358.324613 L211.515639,358.324613 C184.418622,358.324613 162.452149,336.358141 162.452149,309.261123 C162.452149,282.164106 184.418622,260.197633 211.515639,260.197633 L260.608967,260.197633 Z" id="Combined-Shape" fill="#EFEFF4"></path>
            <g id="Oval">
                <use fill="black" fill-opacity="1" filter="url(#filter-3)" xlink:href="#path-2"></use>
                <use fill="#FFFFFF" fill-rule="evenodd" xlink:href="#path-2"></use>
            </g>
        </g>
    </g>
</svg>