<?xml version="1.0" encoding="UTF-8"?>
<svg width="393px" height="393px" viewBox="0 0 393 393" version="1.1" xmlns="http://www.w3.org/2000/svg" xmlns:xlink="http://www.w3.org/1999/xlink">
    <!-- Generator: Sketch 53.2 (72643) - https://sketchapp.com -->
    <title>Combined Shape</title>
    <desc>Created with Sketch.</desc>
    <defs>
        <linearGradient x1="80.7198019%" y1="66.0430998%" x2="75.292274%" y2="24.108473%" id="linearGradient-1">
            <stop stop-color="#084115" offset="0%"></stop>
            <stop stop-color="#1D712F" offset="38.8175417%"></stop>
            <stop stop-color="#22A13D" offset="100%"></stop>
        </linearGradient>
    </defs>
    <g id="Page-1" stroke="none" stroke-width="1" fill="none" fill-rule="evenodd">
        <g id="MockSwiftLogo" fill="url(#linearGradient-1)">
            <path d="M230.816807,122.342936 C209.857517,135.988198 196,159.625801 196,186.5 C196,228.749783 230.250217,263 272.5,263 C289.487568,263 305.181893,257.462971 317.876658,248.095233 C300.887769,274.506344 271.236815,292 237.5,292 C184.756806,292 142,249.243194 142,196.5 C142,168.054081 154.436906,142.512957 174.169776,125.01757 C140.718655,137.981133 117,170.470672 117,208.5 C117,239.404741 132.66401,266.650956 156.485855,282.73247 C116.295674,266.197899 88,226.653354 88,180.5 C88,153.323265 97.8108826,128.437984 114.084098,109.192707 C84.2296856,132.233832 65,168.371249 65,209 C65,213.080629 65.1939812,217.115952 65.5732252,221.09725 C53.7381867,199.732844 47,175.153316 47,149 C47,96.7352596 73.9095919,50.7555912 114.629619,24.1601511 C58.1247018,56.2059391 20,116.900719 20,186.5 C20,289.501106 103.498894,373 206.5,373 C307.851132,373 390.31986,292.154815 392.935984,191.434644 C392.978576,193.117921 393,194.806459 393,196.5 C393,305.023953 305.023953,393 196.5,393 C87.9760467,393 0,305.023953 0,196.5 C0,89.2678284 85.8941196,2.09730336 192.633503,0.0372812147 C193.752675,0.012470569 194.874881,-1.42108547e-14 196,-1.42108547e-14 C196.077591,-1.42108547e-14 196.155168,5.93080783e-05 196.232732,0.000177881375 C196.321807,5.93062317e-05 196.410897,0 196.5,0 C198.193541,0 199.882079,0.0214242088 201.565356,0.0640163835 C201.361917,0.0693005314 201.15856,0.0749104578 200.955284,0.0808456604 C280.951856,2.69484349 345,68.367799 345,149 C345,152.943106 344.846833,156.850438 344.546123,160.716371 C333.964632,131.152216 305.702498,110 272.5,110 C257.124416,110 242.808283,114.536047 230.816807,122.342936 Z M309,99 C313.418278,99 317,95.418278 317,91 C317,86.581722 313.418278,83 309,83 C304.581722,83 301,86.581722 301,91 C301,95.418278 304.581722,99 309,99 Z" id="Combined-Shape"></path>
        </g>
    </g>
</svg>
